<svg xmlns="http://www.w3.org/2000/svg" version="1.1" xmlns:xlink="http://www.w3.org/1999/xlink" xmlns:svgjs="http://svgjs.dev/svgjs" viewBox="0 0 1422 800"><defs><filter id="uuunion-blur" x="-100%" y="-100%" width="400%" height="400%" color-interpolation-filters="sRGB">
        <feGaussianBlur in="SourceGraphic" stdDeviation="7.5 0" result="blur"></feGaussianBlur>
        <feDropShadow stdDeviation="12.307692307692308" in="blur" dx="10" dy="10" flood-color="hsl(316, 73%, 52%)" flood-opacity="0.25" x="0%" y="0%" width="100%" height="100%"></feDropShadow>
      </filter><filter id="uuunion-blur2" x="-100%" y="-100%" width="400%" height="400%" color-interpolation-filters="sRGB">
        <feGaussianBlur in="SourceGraphic" stdDeviation="7.5 0" result="blur"></feGaussianBlur>
        <feDropShadow stdDeviation="12.307692307692308" in="blur" dx="-10" dy="-10" flood-color="hsl(316, 73%, 52%)" flood-opacity="0.25" x="0%" y="0%" width="100%" height="100%"></feDropShadow>
      </filter><linearGradient gradientTransform="rotate(0, 0.5, 0.5)" x1="50%" y1="0%" x2="50%" y2="100%" id="uuunion-grad"><stop stop-color="hsl(37, 99%, 67%)" offset="10%"></stop><stop stop-color="hsl(316, 73%, 52%)" offset="90%"></stop></linearGradient><linearGradient gradientTransform="rotate(135, 0.5, 0.5)" x1="50%" y1="0%" x2="50%" y2="100%" id="uuunion-grad2"><stop stop-color="hsl(37, 99%, 67%)" offset="25%"></stop><stop stop-color="hsl(316, 73%, 52%)" offset="100%"></stop></linearGradient><linearGradient gradientTransform="rotate(333, 0.5, 0.5)" x1="50%" y1="0%" x2="50%" y2="100%" id="uuunion-grad3"><stop stop-color="hsl(37, 99%, 67%)" offset="0%"></stop><stop stop-color="hsl(316, 73%, 52%)" offset="75%"></stop></linearGradient></defs><path d="M-136.39 -87.68Q-123.24 -86.4 -110.1 -84.73 -96.95 -82.78 -83.81 -80.65 -70.66 -78.49 -57.52 -76.42 -44.37 -74.56 -31.23 -73.03 -18.08 -71.93 -4.94 -71.31 8.2 -71.22 21.34 -71.67 34.49 -72.62 47.63 -74.01 60.78 -75.77 73.92 -77.78 87.07 -79.93 100.21 -82.08 113.36 -84.11 126.5 -85.89 139.65 -87.31 152.79 -88.28 165.94 -88.75 179.08 -88.7 192.23 -88.11 205.37 -87.03 218.52 -85.53 231.66 -83.69 244.81 -81.62 257.95 -79.46 271.1 -77.33 284.24 -75.36 297.38 -73.67 310.53 -72.37 323.67 -71.53 336.82 -71.2 349.96 -71.4 363.11 -72.13 376.25 -73.33 389.4 -74.94 402.54 -76.85 415.69 -78.95 428.83 -81.12 441.98 -83.22 455.12 -85.12 468.27 -86.72 481.41 -87.9 494.56 -88.61 507.7 -88.79 520.85 -88.44 533.99 -87.58 547.14 -86.25 560.28 -84.55 573.43 -82.58 586.57 -80.44 599.72 -78.28 612.86 -76.22 626.01 -74.39 639.15 -72.91 652.3 -71.85 665.44 -71.28 678.59 -71.24 691.73 -71.74 704.88 -72.73 718.02 -74.17 731.17 -75.96 744.31 -77.99 757.46 -80.14 770.6 -82.29 783.75 -84.3 796.89 -86.04 810.04 -87.42 823.18 -88.35 836.33 -88.77 849.47 -88.66 862.62 -88.03 875.76 -86.9 888.91 -85.36 902.05 -83.49 915.2 -81.41 928.34 -79.25 941.49 -77.13 954.63 -75.18 967.78 -73.53 980.92 -72.27 994.07 -71.47 1007.22 -71.2 1020.36 -71.45 1033.51 -72.23 1046.65 -73.47 1059.8 -75.11 1072.94 -77.05 1086.09 -79.17 1099.23 -81.33 1112.38 -83.42 1125.52 -85.29 1138.67 -86.85 1151.81 -87.99 1164.96 -88.65 1178.1 -88.78 1191.25 -88.38 1204.39 -87.47 1217.54 -86.1 1230.68 -84.37 1243.83 -82.37 1256.97 -80.23 1270.12 -78.07 1283.26 -76.03 1296.41 -74.23 1309.55 -72.78 1322.7 -71.77 1335.84 -71.25 1348.99 -71.27 1362.13 -71.82 1375.28 -72.86 1388.42 -74.33 1401.57 -76.15 1414.71 -78.2 1427.86 -80.36 1441 -82.5 1454.15 -84.48 1467.29 -86.2 1480.44 -87.53 1493.58 -88.41 1506.73 -88.78 1519.87 -88.62 1533.95 -79.94 1530.33 -57.12 1533.55 -42.29 1543.81 -27.46 1558.75 -12.63 1574.94 2.18 1588.66 17.01 1596.77 31.84 1597.39 46.66 1590.4 61.49 1577.38 76.32 1561.34 91.14 1545.96 105.97 1534.76 120.8 1530.32 135.62 1533.66 150.45 1544.01 165.28 1558.99 180.1 1575.17 194.93 1588.83 209.76 1596.83 224.58 1597.34 239.41 1590.24 254.24 1577.16 269.06 1561.1 283.89 1545.75 298.72 1534.64 313.54 1530.31 328.37 1533.76 343.2 1544.2 358.03 1559.23 372.85 1575.4 387.68 1589 402.51 1596.9 417.33 1597.29 432.16 1590.09 446.99 1576.94 461.81 1560.86 476.64 1545.55 491.47 1534.52 506.29 1530.31 521.12 1533.87 535.95 1544.4 550.77 1559.47 565.6 1575.63 580.43 1589.16 595.25 1596.96 610.08 1597.24 624.91 1589.93 639.73 1576.71 654.56 1560.62 669.39 1545.35 684.21 1534.41 699.04 1530.3 713.87 1533.98 728.7 1544.59 743.52 1559.71 758.35 1575.85 773.18 1589.32 788 1597.02 802.83 1597.18 817.66 1589.77 832.48 1576.49 847.31 1560.38 862.14 1547.09 859.06 1533.8 857.25 1520.51 856.82 1507.21 857.8 1493.92 860.12 1480.63 863.65 1467.34 868.17 1454.05 873.4 1440.75 879.04 1427.46 884.73 1414.17 890.14 1400.88 894.93 1387.59 898.82 1374.29 901.56 1361 903 1347.71 903.04 1334.42 901.68 1321.13 899.01 1307.84 895.19 1294.54 890.44 1281.25 885.07 1267.96 879.38 1254.67 873.73 1241.38 868.46 1228.08 863.89 1214.79 860.3 1201.5 857.9 1188.21 856.84 1174.92 857.19 1161.63 858.91 1148.33 861.92 1135.04 866.02 1121.75 870.97 1108.46 876.47 1095.17 882.18 1081.87 887.76 1068.58 892.86 1055.29 897.19 1042 900.48 1028.71 902.52 1015.42 903.19 1002.12 902.46 988.83 900.37 975.54 897.04 962.25 892.68 948.96 887.55 935.66 881.96 922.37 876.25 909.08 870.77 895.79 865.85 882.5 861.78 869.21 858.82 855.91 857.15 842.62 856.86 829.33 857.97 816.04 860.42 802.75 864.05 789.45 868.65 776.16 873.94 762.87 879.6 749.58 885.28 736.29 890.64 723 895.36 709.7 899.14 696.41 901.76 683.12 903.06 669.83 902.97 656.54 901.48 643.24 898.69 629.95 894.76 616.66 889.94 603.37 884.52 590.08 878.82 576.79 873.19 563.49 867.98 550.2 863.49 536.91 860.01 523.62 857.74 510.33 856.81 497.03 857.3 483.74 859.15 470.45 862.28 457.16 866.47 443.87 871.49 430.58 877.02 417.28 882.74 403.99 888.28 390.7 893.33 377.41 897.56 364.12 900.73 350.83 902.65 337.53 903.19 324.24 902.32 310.95 900.1 297.66 896.66 284.37 892.21 271.07 887.02 257.78 881.4 244.49 875.7 231.2 870.26 217.91 865.41 204.62 861.44 191.32 858.6 178.03 857.06 164.74 856.9 151.45 858.15 138.16 860.72 124.87 864.46 111.57 869.15 98.28 874.49 84.99 880.16 71.7 885.82 58.41 891.14 45.12 895.77 31.82 899.45 18.53 901.95 5.24 903.12 -8.04 902.88 -21.33 901.26 -34.63 898.35 -47.92 894.32 -61.21 889.43 -74.5 883.97 -87.79 878.26 -101.08 872.66 -114.38 867.5 -127.67 863.1 -140.96 859.73 -146.14 844.93 -150.41 830.12 -152.79 815.32 -152.74 800.52 -150.26 785.71 -145.93 770.91 -140.74 756.11 -135.88 741.3 -132.47 726.5 -131.29 711.7 -132.61 696.89 -136.13 682.09 -141.04 667.28 -146.21 652.48 -150.46 637.68 -152.81 622.87 -152.72 608.07 -150.21 593.27 -145.86 578.46 -140.67 563.66 -135.82 548.86 -132.44 534.05 -131.29 519.25 -132.65 504.45 -136.19 489.64 -141.11 474.84 -146.28 460.04 -150.51 445.23 -152.82 430.43 -152.7 415.63 -150.16 400.82 -145.79 386.02 -140.59 371.22 -135.76 356.41 -132.4 341.61 -131.29 326.81 -132.68 312 -136.26 297.2 -141.19 282.39 -146.35 267.59 -150.56 252.79 -152.84 237.98 -152.68 223.18 -150.1 208.38 -145.71 193.57 -140.51 178.77 -135.7 163.97 -132.37 149.16 -131.3 134.36 -132.72 119.56 -136.32 104.75 -141.27 89.95 -146.42 75.15 -150.61 60.34 -152.86 45.54 -152.66 30.74 -150.05 15.93 -145.64 1.13 -140.44 -13.66 -135.63 -28.47 -132.33 -43.27 -131.3 -58.07 -132.76 -72.88 -136.39 -87.68" fill="url(#uuunion-grad)"></path><path d="M-136.4 -87.68Q-132.77 -72.88 -131.31 -58.08 -132.34 -43.27 -135.64 -28.47 -140.45 -13.67 -145.65 1.13 -150.06 15.93 -152.67 30.73 -152.87 45.54 -150.62 60.34 -146.43 75.15 -141.28 89.95 -136.33 104.75 -132.73 119.56 -131.31 134.36 -132.38 149.16 -135.7 163.97 -140.52 178.77 -145.72 193.57 -150.11 208.38 -152.69 223.18 -152.85 237.98 -150.57 252.79 -146.36 267.59 -141.2 282.39 -136.27 297.2 -132.69 312 -131.3 326.8 -132.41 341.61 -135.77 356.41 -138.72 379.35 -127.87 389.28 -118.9 391.38 -109.94 393.7 -100.97 396.2 -92.01 398.8 -83.04 401.43 -74.08 404.02 -65.12 406.5 -56.15 408.81 -47.19 410.88 -38.22 412.65 -29.26 414.08 -20.29 415.14 -3.35 415.93 -0.36 415.98 11.48 412.36 23.29 408.08 35.05 403.21 46.75 397.83 58.39 392.02 69.97 385.91 81.47 379.62 92.9 373.29 104.25 367.04 115.53 361.02 126.74 355.34 137.88 350.11 148.95 345.41 159.97 341.3 170.92 337.83 181.83 335 192.7 332.8 203.53 331.18 214.34 330.08 225.14 329.41 235.93 329.06 246.72 328.92 257.52 328.86 268.34 328.75 279.19 328.46 290.08 327.88 301 326.89 311.97 325.43 323 323.41 334.09 320.79 345.23 317.56 356.43 313.72 367.7 309.32 379.03 304.4 390.42 299.04 401.87 293.35 413.37 287.43 424.91 281.39 436.5 275.37 448.12 269.49 459.77 263.85 471.43 258.57 483.1 253.73 494.77 249.4 506.43 245.62 518.06 242.43 529.65 239.81 541.2 237.76 552.7 236.2 564.12 235.09 575.48 234.32 586.74 233.8 597.92 233.42 609 233.06 619.98 232.6 630.85 231.94 641.61 230.97 652.25 229.6 662.79 227.77 673.22 225.41 683.54 222.51 693.76 219.06 703.88 215.07 713.92 210.59 723.88 205.67 733.77 200.39 743.61 194.86 753.41 189.16 763.18 183.41 772.94 177.72 782.7 172.2 792.49 166.94 802.31 162.04 812.18 157.56 822.12 153.57 832.15 150.08 842.28 147.11 852.53 144.66 862.91 142.69 873.43 141.15 884.11 139.97 894.96 139.06 905.98 138.33 917.17 137.68 928.56 137 940.13 136.19 951.9 135.16 963.84 133.81 975.98 132.08 988.29 129.92 1000.76 127.27 1013.4 124.14 1026.18 120.51 1039.09 116.43 1052.12 111.92 1065.24 107.06 1078.44 101.91 1091.69 96.57 1104.97 91.13 1118.27 85.69 1131.55 80.34 1144.79 75.18 1157.97 70.29 1171.06 65.74 1184.04 61.59 1196.89 57.89 1209.57 54.64 1222.08 51.85 1234.39 49.51 1246.49 47.57 1258.35 45.99 1269.97 44.69 1281.34 43.6 1292.44 42.63 1303.26 41.69 1313.82 40.68 1324.1 39.52 1334.11 38.12 1343.85 36.43 1353.34 34.37 1362.58 31.91 1371.59 29.02 1380.39 25.7 1389 21.96 1397.44 17.83 1405.73 13.35 1413.91 8.59 1422 3.61 1405.86 -13.97 1394.73 -31.57 1392.06 -49.16 1398.68 -66.76 1412.53 -84.35 1429.33 -101.95 1441.4 -127.54 1426.32 -134.19 1413.69 -133.13 1401.06 -132.42 1388.43 -132.11 1375.8 -132.21 1363.17 -132.7 1350.54 -133.58 1337.91 -134.79 1325.28 -136.27 1312.66 -137.94 1300.03 -139.72 1287.4 -141.51 1274.77 -143.22 1262.14 -144.77 1249.51 -146.07 1236.88 -147.05 1224.25 -147.67 1211.62 -147.89 1198.99 -147.71 1186.36 -147.12 1173.73 -146.17 1161.1 -144.89 1148.47 -143.37 1135.84 -141.66 1123.21 -139.87 1110.58 -138.09 1097.95 -136.41 1085.32 -134.91 1072.69 -133.67 1060.07 -132.77 1047.44 -132.23 1034.81 -132.1 1022.18 -132.38 1009.55 -133.05 996.92 -134.08 984.29 -135.42 971.66 -136.99 959.03 -138.72 946.4 -140.51 933.77 -142.28 921.14 -143.93 908.51 -145.38 895.88 -146.55 883.25 -147.37 870.62 -147.82 857.99 -147.86 845.36 -147.5 832.73 -146.74 820.1 -145.64 807.48 -144.24 794.85 -142.63 782.22 -140.88 769.59 -139.08 756.96 -137.33 744.33 -135.72 731.7 -134.33 719.07 -133.23 706.44 -132.48 693.81 -132.12 681.18 -132.17 668.55 -132.63 655.92 -133.46 643.29 -134.64 630.66 -136.09 618.03 -137.74 605.4 -139.51 592.77 -141.31 580.14 -143.03 567.51 -144.6 554.89 -145.93 542.26 -146.96 529.63 -147.62 517 -147.89 504.37 -147.75 491.74 -147.21 479.11 -146.29 466.48 -145.05 453.85 -143.55 441.22 -141.86 428.59 -140.08 415.96 -138.29 403.33 -136.59 390.7 -135.07 378.07 -133.8 365.44 -132.85 352.81 -132.27 340.18 -132.1 327.55 -132.33 314.92 -132.95 302.3 -133.95 289.67 -135.25 277.04 -136.8 264.41 -138.52 251.78 -140.31 239.15 -142.09 226.52 -143.75 213.89 -145.23 201.26 -146.43 188.63 -147.3 176 -147.79 163.37 -147.88 150.74 -147.56 138.11 -146.85 125.48 -145.78 112.85 -144.41 100.22 -142.82 87.59 -141.08 74.96 -139.28 62.33 -137.52 49.71 -135.89 37.08 -134.47 24.45 -133.34 11.82 -132.55 -0.8 -132.14 -13.43 -132.15 -26.06 -132.56 -38.69 -133.35 -51.32 -134.49 -63.95 -135.91 -76.58 -137.55 -89.21 -139.31 -101.84 -141.11 -114.47 -142.84 -127.1 -144.44 -139.73 -145.8 -156.03 -139.75 -152.47 -117.69 -144.3 -102.7 -136.4 -87.68" fill="url(#uuunion-grad2)" filter="url(#uuunion-blur)"></path><path d="M1398.41 325.35Q1407.11 323.02 1415.82 320.6 1424.52 318.17 1433.23 315.79 1441.93 313.52 1450.64 311.43 1459.34 309.57 1468.05 307.99 1485.46 306.03 1502.87 305.2 1520.28 306.35 1537.69 308.6 1530.5 325.9 1533.76 343.2 1546.47 360.5 1564.68 377.79 1582.74 395.09 1595.04 412.39 1597.77 429.69 1590.09 446.99 1574.37 464.28 1555.49 481.58 1539.31 498.88 1530.86 516.18 1532.75 533.48 1544.4 550.77 1562.19 568.07 1580.6 585.37 1593.93 602.67 1598.02 619.97 1591.62 637.26 1576.71 654.56 1557.92 671.86 1541.07 689.16 1531.4 706.46 1531.9 723.75 1542.43 741.05 1559.71 758.35 1578.38 775.65 1592.65 792.94 1598.09 810.24 1593.01 827.54 1578.99 844.84 1560.38 862.14 1548.19 859.27 1536 857.46 1523.8 856.8 1511.61 857.32 1499.42 859 1487.23 861.76 1475.04 865.44 1462.84 869.87 1450.65 874.82 1438.46 880.03 1426.27 885.23 1414.08 890.17 1401.88 894.6 1389.69 898.27 1377.5 901.01 1365.31 902.68 1353.12 903.19 1340.92 902.52 1328.73 900.69 1316.54 897.81 1304.35 894.02 1292.16 889.52 1279.96 884.52 1267.77 879.3 1255.58 874.11 1243.39 869.22 1231.2 864.88 1219 861.32 1206.81 858.7 1194.62 857.18 1182.43 856.82 1170.24 857.64 1158.04 859.6 1145.85 862.61 1133.66 866.5 1121.47 871.08 1109.28 876.12 1097.08 881.36 1084.89 886.52 1072.7 891.35 1060.51 895.6 1048.32 899.06 1036.12 901.54 1023.93 902.92 1011.74 903.13 999.55 902.16 987.36 900.06 975.16 896.93 962.97 892.94 950.78 888.29 938.59 883.21 926.4 877.97 914.2 872.83 902.01 868.06 889.82 863.9 877.63 860.56 865.44 858.21 853.24 856.98 841.05 856.91 828.86 858.03 816.67 860.27 804.48 863.52 792.28 867.61 780.09 872.33 767.9 877.44 755.71 882.68 743.52 887.79 731.32 892.49 719.13 896.56 706.94 899.79 694.75 902 682.56 903.09 670.36 903 658.17 901.73 645.98 899.36 633.79 896 621.6 891.82 609.4 887.03 597.21 881.89 585.02 876.65 572.83 871.58 560.64 866.94 548.44 862.97 536.25 859.87 524.06 857.79 511.87 856.85 499.68 857.09 487.48 858.5 475.29 861 463.1 864.48 450.91 868.75 438.72 873.59 426.52 878.76 414.33 884 402.14 889.02 389.95 893.59 377.76 897.47 365.56 900.45 353.37 902.38 341.18 903.18 328.99 902.79 316.8 901.23 304.6 898.6 292.41 895.01 280.22 890.65 268.03 885.76 255.84 880.56 243.64 875.34 231.45 870.36 219.26 865.86 207.07 862.09 194.88 859.24 182.68 857.44 170.49 856.8 158.3 857.34 146.11 859.03 133.92 861.8 121.72 865.49 109.53 869.93 97.34 874.88 85.15 880.09 72.96 885.3 60.76 890.23 48.57 894.65 36.38 898.31 24.19 901.04 4.75 897.87 -4.64 882.89 -6.42 872.74 -7.64 862.59 -8.17 852.44 -7.96 842.29 -6 827.07 -4.46 822 9.39 815.07 23.26 807.01 37.07 797.93 50.77 787.99 64.31 777.39 77.65 766.37 90.77 755.19 103.66 744.1 116.32 733.37 128.78 723.23 141.05 713.88 153.17 705.49 165.19 698.15 177.15 691.91 189.09 686.77 201.06 682.65 213.09 679.43 225.23 676.95 237.48 675 249.87 673.33 262.38 671.71 275.03 669.89 287.78 667.64 300.6 664.74 313.47 661.03 326.35 656.38 339.19 650.7 351.95 643.99 364.6 636.27 377.11 627.64 389.45 618.22 401.61 608.2 413.59 597.78 425.4 587.19 437.07 576.65 448.62 566.41 460.1 556.65 471.56 547.58 483.06 539.33 494.66 531.99 506.42 525.63 518.39 520.23 530.62 515.73 543.15 512.04 555.99 509.02 569.17 506.47 582.68 504.21 596.49 502.01 610.55 499.66 624.83 496.96 639.24 493.72 653.72 489.78 668.16 485.03 682.48 479.4 696.59 472.86 710.41 465.44 723.85 457.22 736.86 448.31 749.38 438.85 761.39 429.02 772.89 419.02 783.88 409.05 794.42 399.3 804.57 389.96 813.83 386.66 823.07 383.75 832.28 381.29 841.46 379.31 850.63 377.84 859.76 376.88 868.88 376.43 877.97 376.45 887.04 376.91 896.1 377.75 905.13 378.89 914.14 380.27 923.14 381.79 932.13 383.37 941.1 384.92 950.06 386.33 959.01 387.54 967.94 388.46 976.87 389.02 985.8 389.16 994.72 388.85 1003.64 388.04 1012.55 386.73 1021.47 384.92 1030.39 382.63 1039.32 379.89 1048.25 376.76 1057.19 373.3 1066.13 369.57 1075.09 365.66 1084.07 361.65 1093.06 357.64 1102.06 353.71 1111.09 349.95 1120.13 346.43 1129.2 343.25 1138.3 340.44 1147.42 338.07 1156.56 336.16 1165.74 334.75 1174.95 333.83 1184.19 333.38 1193.47 333.39 1202.78 333.82 1212.13 334.59 1221.52 335.66 1230.95 336.95 1240.42 338.36 1249.94 339.83 1259.5 341.25 1269.1 342.54 1278.75 343.62 1288.45 344.42 1298.19 344.87 1307.99 344.92 1317.83 344.52 1327.72 343.65 1337.67 342.3 1347.66 340.47 1357.71 338.18 1367.81 335.48 1377.96 332.39 1388.16 328.99 1398.41 325.35" fill="url(#uuunion-grad3)" filter="url(#uuunion-blur2)"></path></svg>